<svg width="36" height="1642" viewBox="0 0 36 1642" fill="none" xmlns="http://www.w3.org/2000/svg">
<g clip-path="url(#clip0_245_5555)">
<line x1="1.99976" y1="119.5" x2="18.9998" y2="119.5" stroke="#CACACA"/>
<line x1="1.99976" y1="239.5" x2="18.9998" y2="239.5" stroke="#CACACA"/>
<line x1="1.99976" y1="359.5" x2="18.9998" y2="359.5" stroke="#CACACA"/>
<line x1="1.99976" y1="479.5" x2="18.9998" y2="479.5" stroke="#CACACA"/>
<line x1="1.99976" y1="599.5" x2="18.9998" y2="599.5" stroke="#CACACA"/>
<line x1="1.99976" y1="719.5" x2="18.9998" y2="719.5" stroke="#CACACA"/>
<line x1="1.99976" y1="839.5" x2="18.9998" y2="839.5" stroke="#CACACA"/>
<line x1="1.99976" y1="959.5" x2="18.9998" y2="959.5" stroke="#CACACA"/>
<line x1="1.99976" y1="1079.5" x2="18.9998" y2="1079.5" stroke="#CACACA"/>
<line x1="1.99976" y1="1199.5" x2="18.9998" y2="1199.5" stroke="#CACACA"/>
<line x1="1.99976" y1="1319.5" x2="18.9998" y2="1319.5" stroke="#CACACA"/>
<line x1="1.99976" y1="1439.5" x2="18.9998" y2="1439.5" stroke="#CACACA"/>
<line x1="1.99976" y1="1559.5" x2="18.9998" y2="1559.5" stroke="#CACACA"/>
<line x1="1.99976" y1="149.5" x2="33.9998" y2="149.5" stroke="#CACACA"/>
<line x1="1.99976" y1="269.5" x2="33.9998" y2="269.5" stroke="#CACACA"/>
<line x1="1.99976" y1="389.5" x2="33.9998" y2="389.5" stroke="#CACACA"/>
<line x1="1.99976" y1="509.5" x2="33.9998" y2="509.5" stroke="#CACACA"/>
<line x1="1.99976" y1="629.5" x2="33.9998" y2="629.5" stroke="#CACACA"/>
<line x1="1.99976" y1="749.5" x2="33.9998" y2="749.5" stroke="#CACACA"/>
<line x1="1.99976" y1="869.5" x2="33.9998" y2="869.5" stroke="#CACACA"/>
<line x1="1.99976" y1="989.5" x2="33.9998" y2="989.5" stroke="#CACACA"/>
<line x1="1.99976" y1="1109.5" x2="33.9998" y2="1109.5" stroke="#CACACA"/>
<line x1="1.99976" y1="1229.5" x2="33.9998" y2="1229.5" stroke="#CACACA"/>
<line x1="1.99976" y1="1349.5" x2="33.9998" y2="1349.5" stroke="#CACACA"/>
<line x1="1.99976" y1="1469.5" x2="33.9998" y2="1469.5" stroke="#CACACA"/>
<line x1="1.99976" y1="1589.5" x2="33.9998" y2="1589.5" stroke="#CACACA"/>
<line x1="1.99976" y1="59.5" x2="18.9998" y2="59.5" stroke="#CACACA"/>
<line x1="1.99976" y1="179.5" x2="18.9998" y2="179.5" stroke="#CACACA"/>
<line x1="1.99976" y1="299.5" x2="18.9998" y2="299.5" stroke="#CACACA"/>
<line x1="1.99976" y1="419.5" x2="18.9998" y2="419.5" stroke="#CACACA"/>
<line x1="1.99976" y1="539.5" x2="18.9998" y2="539.5" stroke="#CACACA"/>
<line x1="1.99976" y1="659.5" x2="18.9998" y2="659.5" stroke="#CACACA"/>
<line x1="1.99976" y1="779.5" x2="18.9998" y2="779.5" stroke="#CACACA"/>
<line x1="1.99976" y1="899.5" x2="18.9998" y2="899.5" stroke="#CACACA"/>
<line x1="1.99976" y1="1019.5" x2="18.9998" y2="1019.5" stroke="#CACACA"/>
<line x1="1.99976" y1="1139.5" x2="18.9998" y2="1139.5" stroke="#CACACA"/>
<line x1="1.99976" y1="1259.5" x2="18.9998" y2="1259.5" stroke="#CACACA"/>
<line x1="1.99976" y1="1379.5" x2="18.9998" y2="1379.5" stroke="#CACACA"/>
<line x1="1.99976" y1="1499.5" x2="18.9998" y2="1499.5" stroke="#CACACA"/>
<line x1="1.99976" y1="1619.5" x2="18.9998" y2="1619.5" stroke="#CACACA"/>
<line x1="1.99976" y1="89.5" x2="33.9998" y2="89.5" stroke="#CACACA"/>
<line x1="1.99976" y1="209.5" x2="33.9998" y2="209.5" stroke="#CACACA"/>
<line x1="1.99976" y1="329.5" x2="33.9998" y2="329.5" stroke="#CACACA"/>
<line x1="1.99976" y1="449.5" x2="33.9998" y2="449.5" stroke="#CACACA"/>
<line x1="1.99976" y1="569.5" x2="33.9998" y2="569.5" stroke="#CACACA"/>
<line x1="1.99976" y1="689.5" x2="33.9998" y2="689.5" stroke="#CACACA"/>
<line x1="1.99976" y1="809.5" x2="33.9998" y2="809.5" stroke="#CACACA"/>
<line x1="1.99976" y1="929.5" x2="33.9998" y2="929.5" stroke="#CACACA"/>
<line x1="1.99976" y1="1049.5" x2="33.9998" y2="1049.5" stroke="#CACACA"/>
<line x1="1.99976" y1="1169.5" x2="33.9998" y2="1169.5" stroke="#CACACA"/>
<line x1="1.99976" y1="1289.5" x2="33.9998" y2="1289.5" stroke="#CACACA"/>
<line x1="1.99976" y1="1409.5" x2="33.9998" y2="1409.5" stroke="#CACACA"/>
<line x1="1.99976" y1="1529.5" x2="33.9998" y2="1529.5" stroke="#CACACA"/>
<circle cx="17.9998" cy="690" r="18" fill="#006B94"/>
</g>
<defs>
<clipPath id="clip0_245_5555">
<rect width="36" height="1642" fill="white"/>
</clipPath>
</defs>
</svg>
