<svg width="25" height="25" viewBox="0 0 25 25" fill="none" xmlns="http://www.w3.org/2000/svg">
<g clip-path="url(#clip0_1485_843)">
<path d="M24.0221 6.70494C23.8864 6.19436 23.619 5.72836 23.2466 5.3536C22.8743 4.97883 22.41 4.70844 21.9003 4.56949C20.0239 4.06494 12.5239 4.06494 12.5239 4.06494C12.5239 4.06494 5.02393 4.06494 3.14756 4.56949C2.63786 4.70844 2.17358 4.97883 1.80121 5.3536C1.42884 5.72836 1.16143 6.19436 1.02574 6.70494C0.523926 8.58949 0.523926 12.5195 0.523926 12.5195C0.523926 12.5195 0.523926 16.4495 1.02574 18.334C1.16143 18.8446 1.42884 19.3106 1.80121 19.6854C2.17358 20.0601 2.63786 20.3305 3.14756 20.4695C5.02393 20.974 12.5239 20.974 12.5239 20.974C12.5239 20.974 20.0239 20.974 21.9003 20.4695C22.41 20.3305 22.8743 20.0601 23.2466 19.6854C23.619 19.3106 23.8864 18.8446 24.0221 18.334C24.5239 16.4495 24.5239 12.5195 24.5239 12.5195C24.5239 12.5195 24.5239 8.58949 24.0221 6.70494Z" fill="#1D1D1D"/>
<path d="M10.0693 16.088V8.95068L16.3421 12.5193L10.0693 16.088Z" fill="#FEFEFE"/>
</g>
<defs>
<clipPath id="clip0_1485_843">
<rect width="24" height="24" fill="white" transform="translate(0.5 0.519531)"/>
</clipPath>
</defs>
</svg>
