<svg width="18" height="19" viewBox="0 0 18 19" fill="none" xmlns="http://www.w3.org/2000/svg">
<path d="M5.46492 18.035C3.44276 18.035 1.6197 16.8169 0.845724 14.9488C0.0717475 13.0806 0.499254 10.9301 1.92892 9.50002L4.05092 7.37802L5.46492 8.79202L3.34392 10.913C2.58598 11.671 2.28997 12.7757 2.5674 13.811C2.84482 14.8464 3.65354 15.6551 4.6889 15.9325C5.72426 16.21 6.82898 15.914 7.58692 15.156L9.70792 13.035L11.1219 14.45L9.00092 16.571C8.06499 17.5116 6.79178 18.0387 5.46492 18.035ZM6.17192 13.742L4.75792 12.328L11.8289 5.25702L13.2429 6.67102L6.17292 13.741L6.17192 13.742ZM13.9509 11.621L12.5359 10.207L14.6569 8.08602C15.4252 7.33035 15.7291 6.22069 15.4532 5.179C15.1772 4.13732 14.3637 3.32367 13.3221 3.04746C12.2805 2.77126 11.1708 3.07494 10.4149 3.84302L8.29292 5.96402L6.87892 4.55002L9.00092 2.42802C10.956 0.489986 14.1099 0.496893 16.0565 2.44347C18.0031 4.39005 18.01 7.54394 16.0719 9.49902L13.9509 11.62V11.621Z" fill="#DADADA"/>
</svg>
