<svg width="36" height="6568" viewBox="0 0 36 6568" fill="none" xmlns="http://www.w3.org/2000/svg">
<g clip-path="url(#clip0_1485_845)">
<line x1="2" y1="120.289" x2="19" y2="120.289" stroke="#CACACA"/>
<line x1="2" y1="240.289" x2="19" y2="240.289" stroke="#CACACA"/>
<line x1="2" y1="360.289" x2="19" y2="360.289" stroke="#CACACA"/>
<line x1="2" y1="480.289" x2="19" y2="480.289" stroke="#CACACA"/>
<line x1="2" y1="600.289" x2="19" y2="600.289" stroke="#CACACA"/>
<line x1="2" y1="720.289" x2="19" y2="720.289" stroke="#CACACA"/>
<line x1="2" y1="840.289" x2="19" y2="840.289" stroke="#CACACA"/>
<line x1="2" y1="960.289" x2="19" y2="960.289" stroke="#CACACA"/>
<line x1="2" y1="1080.29" x2="19" y2="1080.29" stroke="#CACACA"/>
<line x1="2" y1="1200.29" x2="19" y2="1200.29" stroke="#CACACA"/>
<line x1="2" y1="1320.29" x2="19" y2="1320.29" stroke="#CACACA"/>
<line x1="2" y1="1440.29" x2="19" y2="1440.29" stroke="#CACACA"/>
<line x1="2" y1="1560.29" x2="19" y2="1560.29" stroke="#CACACA"/>
<line x1="2" y1="1680.29" x2="19" y2="1680.29" stroke="#CACACA"/>
<line x1="2" y1="1800.29" x2="19" y2="1800.29" stroke="#CACACA"/>
<line x1="2" y1="1920.29" x2="19" y2="1920.29" stroke="#CACACA"/>
<line x1="2" y1="2040.29" x2="19" y2="2040.29" stroke="#CACACA"/>
<line x1="2" y1="2160.29" x2="19" y2="2160.29" stroke="#CACACA"/>
<line x1="2" y1="2280.29" x2="19" y2="2280.29" stroke="#CACACA"/>
<line x1="2" y1="2400.29" x2="19" y2="2400.29" stroke="#CACACA"/>
<line x1="2" y1="2520.29" x2="19" y2="2520.29" stroke="#CACACA"/>
<line x1="2" y1="2640.29" x2="19" y2="2640.29" stroke="#CACACA"/>
<line x1="2" y1="2760.29" x2="19" y2="2760.29" stroke="#CACACA"/>
<line x1="2" y1="2880.29" x2="19" y2="2880.29" stroke="#CACACA"/>
<line x1="2" y1="3000.29" x2="19" y2="3000.29" stroke="#CACACA"/>
<line x1="2" y1="3120.29" x2="19" y2="3120.29" stroke="#CACACA"/>
<line x1="2" y1="3240.29" x2="19" y2="3240.29" stroke="#CACACA"/>
<line x1="2" y1="3360.29" x2="19" y2="3360.29" stroke="#CACACA"/>
<line x1="2" y1="3480.29" x2="19" y2="3480.29" stroke="#CACACA"/>
<line x1="2" y1="3600.29" x2="19" y2="3600.29" stroke="#CACACA"/>
<line x1="2" y1="3720.29" x2="19" y2="3720.29" stroke="#CACACA"/>
<line x1="2" y1="3840.29" x2="19" y2="3840.29" stroke="#CACACA"/>
<line x1="2" y1="3960.29" x2="19" y2="3960.29" stroke="#CACACA"/>
<line x1="2" y1="4080.29" x2="19" y2="4080.29" stroke="#CACACA"/>
<line x1="2" y1="4200.29" x2="19" y2="4200.29" stroke="#CACACA"/>
<line x1="2" y1="4320.29" x2="19" y2="4320.29" stroke="#CACACA"/>
<line x1="2" y1="4440.29" x2="19" y2="4440.29" stroke="#CACACA"/>
<line x1="2" y1="4560.29" x2="19" y2="4560.29" stroke="#CACACA"/>
<line x1="2" y1="4680.29" x2="19" y2="4680.29" stroke="#CACACA"/>
<line x1="2" y1="4800.29" x2="19" y2="4800.29" stroke="#CACACA"/>
<line x1="2" y1="4920.29" x2="19" y2="4920.29" stroke="#CACACA"/>
<line x1="2" y1="5040.29" x2="19" y2="5040.29" stroke="#CACACA"/>
<line x1="2" y1="5160.29" x2="19" y2="5160.29" stroke="#CACACA"/>
<line x1="2" y1="5280.29" x2="19" y2="5280.29" stroke="#CACACA"/>
<line x1="2" y1="5400.29" x2="19" y2="5400.29" stroke="#CACACA"/>
<line x1="2" y1="5520.29" x2="19" y2="5520.29" stroke="#CACACA"/>
<line x1="2" y1="5640.29" x2="19" y2="5640.29" stroke="#CACACA"/>
<line x1="2" y1="5760.29" x2="19" y2="5760.29" stroke="#CACACA"/>
<line x1="2" y1="5880.29" x2="19" y2="5880.29" stroke="#CACACA"/>
<line x1="2" y1="6000.29" x2="19" y2="6000.29" stroke="#CACACA"/>
<line x1="2" y1="6120.29" x2="19" y2="6120.29" stroke="#CACACA"/>
<line x1="2" y1="6240.29" x2="19" y2="6240.29" stroke="#CACACA"/>
<line x1="2" y1="6360.29" x2="19" y2="6360.29" stroke="#CACACA"/>
<line x1="2" y1="6480.29" x2="19" y2="6480.29" stroke="#CACACA"/>
<line x1="2" y1="150.289" x2="34" y2="150.289" stroke="#CACACA"/>
<line x1="2" y1="270.289" x2="34" y2="270.289" stroke="#CACACA"/>
<line x1="2" y1="390.289" x2="34" y2="390.289" stroke="#CACACA"/>
<line x1="2" y1="510.289" x2="34" y2="510.289" stroke="#CACACA"/>
<line x1="2" y1="630.289" x2="34" y2="630.289" stroke="#CACACA"/>
<line x1="2" y1="750.289" x2="34" y2="750.289" stroke="#CACACA"/>
<line x1="2" y1="870.289" x2="34" y2="870.289" stroke="#CACACA"/>
<line x1="2" y1="990.289" x2="34" y2="990.289" stroke="#CACACA"/>
<line x1="2" y1="1110.29" x2="34" y2="1110.29" stroke="#CACACA"/>
<line x1="2" y1="1230.29" x2="34" y2="1230.29" stroke="#CACACA"/>
<line x1="2" y1="1350.29" x2="34" y2="1350.29" stroke="#CACACA"/>
<line x1="2" y1="1470.29" x2="34" y2="1470.29" stroke="#CACACA"/>
<line x1="2" y1="1590.29" x2="34" y2="1590.29" stroke="#CACACA"/>
<line x1="2" y1="1710.29" x2="34" y2="1710.29" stroke="#CACACA"/>
<line x1="2" y1="1830.29" x2="34" y2="1830.29" stroke="#CACACA"/>
<line x1="2" y1="1950.29" x2="34" y2="1950.29" stroke="#CACACA"/>
<line x1="2" y1="2070.29" x2="34" y2="2070.29" stroke="#CACACA"/>
<line x1="2" y1="2190.29" x2="34" y2="2190.29" stroke="#CACACA"/>
<line x1="2" y1="2310.29" x2="34" y2="2310.29" stroke="#CACACA"/>
<line x1="2" y1="2430.29" x2="34" y2="2430.29" stroke="#CACACA"/>
<line x1="2" y1="2550.29" x2="34" y2="2550.29" stroke="#CACACA"/>
<line x1="2" y1="2670.29" x2="34" y2="2670.29" stroke="#CACACA"/>
<line x1="2" y1="2790.29" x2="34" y2="2790.29" stroke="#CACACA"/>
<line x1="2" y1="2910.29" x2="34" y2="2910.29" stroke="#CACACA"/>
<line x1="2" y1="3030.29" x2="34" y2="3030.29" stroke="#CACACA"/>
<line x1="2" y1="3150.29" x2="34" y2="3150.29" stroke="#CACACA"/>
<line x1="2" y1="3270.29" x2="34" y2="3270.29" stroke="#CACACA"/>
<line x1="2" y1="3390.29" x2="34" y2="3390.29" stroke="#CACACA"/>
<line x1="2" y1="3510.29" x2="34" y2="3510.29" stroke="#CACACA"/>
<line x1="2" y1="3630.29" x2="34" y2="3630.29" stroke="#CACACA"/>
<line x1="2" y1="3750.29" x2="34" y2="3750.29" stroke="#CACACA"/>
<line x1="2" y1="3870.29" x2="34" y2="3870.29" stroke="#CACACA"/>
<line x1="2" y1="3990.29" x2="34" y2="3990.29" stroke="#CACACA"/>
<line x1="2" y1="4110.29" x2="34" y2="4110.29" stroke="#CACACA"/>
<line x1="2" y1="4230.29" x2="34" y2="4230.29" stroke="#CACACA"/>
<line x1="2" y1="4350.29" x2="34" y2="4350.29" stroke="#CACACA"/>
<line x1="2" y1="4470.29" x2="34" y2="4470.29" stroke="#CACACA"/>
<line x1="2" y1="4590.29" x2="34" y2="4590.29" stroke="#CACACA"/>
<line x1="2" y1="4710.29" x2="34" y2="4710.29" stroke="#CACACA"/>
<line x1="2" y1="4830.29" x2="34" y2="4830.29" stroke="#CACACA"/>
<line x1="2" y1="4950.29" x2="34" y2="4950.29" stroke="#CACACA"/>
<line x1="2" y1="5070.29" x2="34" y2="5070.29" stroke="#CACACA"/>
<line x1="2" y1="5190.29" x2="34" y2="5190.29" stroke="#CACACA"/>
<line x1="2" y1="5310.29" x2="34" y2="5310.29" stroke="#CACACA"/>
<line x1="2" y1="5430.29" x2="34" y2="5430.29" stroke="#CACACA"/>
<line x1="2" y1="5550.29" x2="34" y2="5550.29" stroke="#CACACA"/>
<line x1="2" y1="5670.29" x2="34" y2="5670.29" stroke="#CACACA"/>
<line x1="2" y1="5790.29" x2="34" y2="5790.29" stroke="#CACACA"/>
<line x1="2" y1="5910.29" x2="34" y2="5910.29" stroke="#CACACA"/>
<line x1="2" y1="6030.29" x2="34" y2="6030.29" stroke="#CACACA"/>
<line x1="2" y1="6150.29" x2="34" y2="6150.29" stroke="#CACACA"/>
<line x1="2" y1="6270.29" x2="34" y2="6270.29" stroke="#CACACA"/>
<line x1="2" y1="6390.29" x2="34" y2="6390.29" stroke="#CACACA"/>
<line x1="2" y1="6510.29" x2="34" y2="6510.29" stroke="#CACACA"/>
<line x1="2" y1="60.2891" x2="19" y2="60.2891" stroke="#CACACA"/>
<line x1="2" y1="180.289" x2="19" y2="180.289" stroke="#CACACA"/>
<line x1="2" y1="300.289" x2="19" y2="300.289" stroke="#CACACA"/>
<line x1="2" y1="420.289" x2="19" y2="420.289" stroke="#CACACA"/>
<line x1="2" y1="540.289" x2="19" y2="540.289" stroke="#CACACA"/>
<line x1="2" y1="660.289" x2="19" y2="660.289" stroke="#CACACA"/>
<line x1="2" y1="780.289" x2="19" y2="780.289" stroke="#CACACA"/>
<line x1="2" y1="900.289" x2="19" y2="900.289" stroke="#CACACA"/>
<line x1="2" y1="1020.29" x2="19" y2="1020.29" stroke="#CACACA"/>
<line x1="2" y1="1140.29" x2="19" y2="1140.29" stroke="#CACACA"/>
<line x1="2" y1="1260.29" x2="19" y2="1260.29" stroke="#CACACA"/>
<line x1="2" y1="1380.29" x2="19" y2="1380.29" stroke="#CACACA"/>
<line x1="2" y1="1500.29" x2="19" y2="1500.29" stroke="#CACACA"/>
<line x1="2" y1="1620.29" x2="19" y2="1620.29" stroke="#CACACA"/>
<line x1="2" y1="1740.29" x2="19" y2="1740.29" stroke="#CACACA"/>
<line x1="2" y1="1860.29" x2="19" y2="1860.29" stroke="#CACACA"/>
<line x1="2" y1="1980.29" x2="19" y2="1980.29" stroke="#CACACA"/>
<line x1="2" y1="2100.29" x2="19" y2="2100.29" stroke="#CACACA"/>
<line x1="2" y1="2220.29" x2="19" y2="2220.29" stroke="#CACACA"/>
<line x1="2" y1="2340.29" x2="19" y2="2340.29" stroke="#CACACA"/>
<line x1="2" y1="2460.29" x2="19" y2="2460.29" stroke="#CACACA"/>
<line x1="2" y1="2580.29" x2="19" y2="2580.29" stroke="#CACACA"/>
<line x1="2" y1="2700.29" x2="19" y2="2700.29" stroke="#CACACA"/>
<line x1="2" y1="2820.29" x2="19" y2="2820.29" stroke="#CACACA"/>
<line x1="2" y1="2940.29" x2="19" y2="2940.29" stroke="#CACACA"/>
<line x1="2" y1="3060.29" x2="19" y2="3060.29" stroke="#CACACA"/>
<line x1="2" y1="3180.29" x2="19" y2="3180.29" stroke="#CACACA"/>
<line x1="2" y1="3300.29" x2="19" y2="3300.29" stroke="#CACACA"/>
<line x1="2" y1="3420.29" x2="19" y2="3420.29" stroke="#CACACA"/>
<line x1="2" y1="3540.29" x2="19" y2="3540.29" stroke="#CACACA"/>
<line x1="2" y1="3660.29" x2="19" y2="3660.29" stroke="#CACACA"/>
<line x1="2" y1="3780.29" x2="19" y2="3780.29" stroke="#CACACA"/>
<line x1="2" y1="3900.29" x2="19" y2="3900.29" stroke="#CACACA"/>
<line x1="2" y1="4020.29" x2="19" y2="4020.29" stroke="#CACACA"/>
<line x1="2" y1="4140.29" x2="19" y2="4140.29" stroke="#CACACA"/>
<line x1="2" y1="4260.29" x2="19" y2="4260.29" stroke="#CACACA"/>
<line x1="2" y1="4380.29" x2="19" y2="4380.29" stroke="#CACACA"/>
<line x1="2" y1="4500.29" x2="19" y2="4500.29" stroke="#CACACA"/>
<line x1="2" y1="4620.29" x2="19" y2="4620.29" stroke="#CACACA"/>
<line x1="2" y1="4740.29" x2="19" y2="4740.29" stroke="#CACACA"/>
<line x1="2" y1="4860.29" x2="19" y2="4860.29" stroke="#CACACA"/>
<line x1="2" y1="4980.29" x2="19" y2="4980.29" stroke="#CACACA"/>
<line x1="2" y1="5100.29" x2="19" y2="5100.29" stroke="#CACACA"/>
<line x1="2" y1="5220.29" x2="19" y2="5220.29" stroke="#CACACA"/>
<line x1="2" y1="5340.29" x2="19" y2="5340.29" stroke="#CACACA"/>
<line x1="2" y1="5460.29" x2="19" y2="5460.29" stroke="#CACACA"/>
<line x1="2" y1="5580.29" x2="19" y2="5580.29" stroke="#CACACA"/>
<line x1="2" y1="5700.29" x2="19" y2="5700.29" stroke="#CACACA"/>
<line x1="2" y1="5820.29" x2="19" y2="5820.29" stroke="#CACACA"/>
<line x1="2" y1="5940.29" x2="19" y2="5940.29" stroke="#CACACA"/>
<line x1="2" y1="6060.29" x2="19" y2="6060.29" stroke="#CACACA"/>
<line x1="2" y1="6180.29" x2="19" y2="6180.29" stroke="#CACACA"/>
<line x1="2" y1="6300.29" x2="19" y2="6300.29" stroke="#CACACA"/>
<line x1="2" y1="6420.29" x2="19" y2="6420.29" stroke="#CACACA"/>
<line x1="2" y1="6540.29" x2="19" y2="6540.29" stroke="#CACACA"/>
<line x1="2" y1="90.2891" x2="34" y2="90.2891" stroke="#CACACA"/>
<line x1="2" y1="210.289" x2="34" y2="210.289" stroke="#CACACA"/>
<line x1="2" y1="330.289" x2="34" y2="330.289" stroke="#CACACA"/>
<line x1="2" y1="450.289" x2="34" y2="450.289" stroke="#CACACA"/>
<line x1="2" y1="570.289" x2="34" y2="570.289" stroke="#CACACA"/>
<line x1="2" y1="690.289" x2="34" y2="690.289" stroke="#CACACA"/>
<line x1="2" y1="810.289" x2="34" y2="810.289" stroke="#CACACA"/>
<line x1="2" y1="930.289" x2="34" y2="930.289" stroke="#CACACA"/>
<line x1="2" y1="1050.29" x2="34" y2="1050.29" stroke="#CACACA"/>
<line x1="2" y1="1170.29" x2="34" y2="1170.29" stroke="#CACACA"/>
<line x1="2" y1="1290.29" x2="34" y2="1290.29" stroke="#CACACA"/>
<line x1="2" y1="1410.29" x2="34" y2="1410.29" stroke="#CACACA"/>
<line x1="2" y1="1530.29" x2="34" y2="1530.29" stroke="#CACACA"/>
<line x1="2" y1="1650.29" x2="34" y2="1650.29" stroke="#CACACA"/>
<line x1="2" y1="1770.29" x2="34" y2="1770.29" stroke="#CACACA"/>
<line x1="2" y1="1890.29" x2="34" y2="1890.29" stroke="#CACACA"/>
<line x1="2" y1="2010.29" x2="34" y2="2010.29" stroke="#CACACA"/>
<line x1="2" y1="2130.29" x2="34" y2="2130.29" stroke="#CACACA"/>
<line x1="2" y1="2250.29" x2="34" y2="2250.29" stroke="#CACACA"/>
<line x1="2" y1="2370.29" x2="34" y2="2370.29" stroke="#CACACA"/>
<line x1="2" y1="2490.29" x2="34" y2="2490.29" stroke="#CACACA"/>
<line x1="2" y1="2610.29" x2="34" y2="2610.29" stroke="#CACACA"/>
<line x1="2" y1="2730.29" x2="34" y2="2730.29" stroke="#CACACA"/>
<line x1="2" y1="2850.29" x2="34" y2="2850.29" stroke="#CACACA"/>
<line x1="2" y1="2970.29" x2="34" y2="2970.29" stroke="#CACACA"/>
<line x1="2" y1="3090.29" x2="34" y2="3090.29" stroke="#CACACA"/>
<line x1="2" y1="3210.29" x2="34" y2="3210.29" stroke="#CACACA"/>
<line x1="2" y1="3330.29" x2="34" y2="3330.29" stroke="#CACACA"/>
<line x1="2" y1="3450.29" x2="34" y2="3450.29" stroke="#CACACA"/>
<line x1="2" y1="3570.29" x2="34" y2="3570.29" stroke="#CACACA"/>
<line x1="2" y1="3690.29" x2="34" y2="3690.29" stroke="#CACACA"/>
<line x1="2" y1="3810.29" x2="34" y2="3810.29" stroke="#CACACA"/>
<line x1="2" y1="3930.29" x2="34" y2="3930.29" stroke="#CACACA"/>
<line x1="2" y1="4050.29" x2="34" y2="4050.29" stroke="#CACACA"/>
<line x1="2" y1="4170.29" x2="34" y2="4170.29" stroke="#CACACA"/>
<line x1="2" y1="4290.29" x2="34" y2="4290.29" stroke="#CACACA"/>
<line x1="2" y1="4410.29" x2="34" y2="4410.29" stroke="#CACACA"/>
<line x1="2" y1="4530.29" x2="34" y2="4530.29" stroke="#CACACA"/>
<line x1="2" y1="4650.29" x2="34" y2="4650.29" stroke="#CACACA"/>
<line x1="2" y1="4770.29" x2="34" y2="4770.29" stroke="#CACACA"/>
<line x1="2" y1="4890.29" x2="34" y2="4890.29" stroke="#CACACA"/>
<line x1="2" y1="5010.29" x2="34" y2="5010.29" stroke="#CACACA"/>
<line x1="2" y1="5130.29" x2="34" y2="5130.29" stroke="#CACACA"/>
<line x1="2" y1="5250.29" x2="34" y2="5250.29" stroke="#CACACA"/>
<line x1="2" y1="5370.29" x2="34" y2="5370.29" stroke="#CACACA"/>
<line x1="2" y1="5490.29" x2="34" y2="5490.29" stroke="#CACACA"/>
<line x1="2" y1="5610.29" x2="34" y2="5610.29" stroke="#CACACA"/>
<line x1="2" y1="5730.29" x2="34" y2="5730.29" stroke="#CACACA"/>
<line x1="2" y1="5850.29" x2="34" y2="5850.29" stroke="#CACACA"/>
<line x1="2" y1="5970.29" x2="34" y2="5970.29" stroke="#CACACA"/>
<line x1="2" y1="6090.29" x2="34" y2="6090.29" stroke="#CACACA"/>
<line x1="2" y1="6210.29" x2="34" y2="6210.29" stroke="#CACACA"/>
<line x1="2" y1="6330.29" x2="34" y2="6330.29" stroke="#CACACA"/>
<line x1="2" y1="6450.29" x2="34" y2="6450.29" stroke="#CACACA"/>
<circle cx="18" cy="690.789" r="18" fill="#006B94"/>
</g>
<defs>
<clipPath id="clip0_1485_845">
<rect width="36" height="6567" fill="white" transform="translate(0 0.789062)"/>
</clipPath>
</defs>
</svg>
