<svg width="49" height="49" viewBox="0 0 49 49" fill="none" xmlns="http://www.w3.org/2000/svg">
<g clip-path="url(#clip0_1485_778)">
<path d="M48.3584 24.8047C48.3584 11.5498 37.6132 0.804688 24.3584 0.804688C11.1036 0.804688 0.358398 11.5498 0.358398 24.8047C0.358398 36.7836 9.1348 46.7127 20.6084 48.5131V31.7422H14.5146V24.8047H20.6084V19.5172C20.6084 13.5022 24.1915 10.1797 29.6736 10.1797C32.2986 10.1797 35.0459 10.6484 35.0459 10.6484V16.5547H32.0196C29.0384 16.5547 28.1084 18.4048 28.1084 20.3047V24.8047H34.7646L33.7006 31.7422H28.1084V48.5131C39.582 46.7127 48.3584 36.7836 48.3584 24.8047Z" fill="#161616"/>
<path d="M33.7006 31.7422L34.7646 24.8047H28.1084V20.3047C28.1084 18.4067 29.0384 16.5547 32.0196 16.5547H35.0459V10.6484C35.0459 10.6484 32.2995 10.1797 29.6736 10.1797C24.1915 10.1797 20.6084 13.5022 20.6084 19.5172V24.8047H14.5146V31.7422H20.6084V48.5131C23.0933 48.9019 25.6235 48.9019 28.1084 48.5131V31.7422H33.7006Z" fill="white"/>
</g>
<defs>
<clipPath id="clip0_1485_778">
<rect width="48" height="48" fill="white" transform="translate(0.358398 0.804688)"/>
</clipPath>
</defs>
</svg>
