<svg width="49" height="49" viewBox="0 0 49 49" fill="none" xmlns="http://www.w3.org/2000/svg">
<g clip-path="url(#clip0_1485_781)">
<path d="M24.3584 48.8047C37.6132 48.8047 48.3584 38.0595 48.3584 24.8047C48.3584 11.5499 37.6132 0.804688 24.3584 0.804688C11.1036 0.804688 0.358398 11.5499 0.358398 24.8047C0.358398 38.0595 11.1036 48.8047 24.3584 48.8047Z" fill="white"/>
<path d="M24.3584 0.804688C11.1041 0.804688 0.358398 11.5504 0.358398 24.8047C0.358398 34.9775 6.67939 43.6689 15.6078 47.1652C15.3905 45.2689 15.2127 42.3454 15.6868 40.2714C16.1214 38.3948 18.4917 28.3405 18.4917 28.3405C18.4917 28.3405 17.7806 26.8985 17.7806 24.7849C17.7806 21.4467 19.7164 18.9578 22.1263 18.9578C24.1806 18.9578 25.1683 20.4985 25.1683 22.3356C25.1683 24.3899 23.8646 27.4714 23.1732 30.3356C22.6004 32.7257 24.3782 34.6812 26.7288 34.6812C30.9954 34.6812 34.2744 30.1775 34.2744 23.6985C34.2744 17.9504 30.1461 13.9405 24.2399 13.9405C17.4053 13.9405 13.3954 19.0565 13.3954 24.3504C13.3954 26.4047 14.1856 28.617 15.1732 29.822C15.3707 30.059 15.3905 30.2763 15.3312 30.5133C15.1535 31.2639 14.7386 32.9035 14.6596 33.2393C14.5609 33.6738 14.3041 33.7726 13.8498 33.5553C10.8473 32.1528 8.97074 27.7874 8.97074 24.2516C8.97074 16.6862 14.4621 9.73308 24.8325 9.73308C33.1485 9.73308 39.6275 15.659 39.6275 23.5998C39.6275 31.8763 34.4127 38.5331 27.1831 38.5331C24.7535 38.5331 22.4621 37.2689 21.6917 35.7677C21.6917 35.7677 20.4868 40.3504 20.1905 41.4763C19.6572 43.5701 18.1954 46.1775 17.2078 47.7775C19.4596 48.4689 21.83 48.8442 24.3189 48.8442C37.5732 48.8442 48.3189 38.0985 48.3189 24.8442C48.3584 11.5504 37.6127 0.804688 24.3584 0.804688Z" fill="#161616"/>
</g>
<defs>
<clipPath id="clip0_1485_781">
<rect width="48" height="48" fill="white" transform="translate(0.358398 0.804688)"/>
</clipPath>
</defs>
</svg>
