<svg width="49" height="49" viewBox="0 0 49 49" fill="none" xmlns="http://www.w3.org/2000/svg">
<path d="M24.3584 5.12656C30.7709 5.12656 31.5303 5.15469 34.0522 5.26719C36.3959 5.37031 37.6615 5.76406 38.5053 6.09219C39.6209 6.52344 40.4272 7.04844 41.2615 7.88281C42.1053 8.72656 42.6209 9.52344 43.0522 10.6391C43.3803 11.4828 43.774 12.7578 43.8772 15.0922C43.9897 17.6234 44.0178 18.3828 44.0178 24.7859C44.0178 31.1984 43.9897 31.9578 43.8772 34.4797C43.774 36.8234 43.3803 38.0891 43.0522 38.9328C42.6209 40.0484 42.0959 40.8547 41.2615 41.6891C40.4178 42.5328 39.6209 43.0484 38.5053 43.4797C37.6615 43.8078 36.3865 44.2016 34.0522 44.3047C31.5209 44.4172 30.7615 44.4453 24.3584 44.4453C17.9459 44.4453 17.1865 44.4172 14.6646 44.3047C12.3209 44.2016 11.0553 43.8078 10.2115 43.4797C9.0959 43.0484 8.28965 42.5234 7.45527 41.6891C6.61152 40.8453 6.0959 40.0484 5.66465 38.9328C5.33652 38.0891 4.94277 36.8141 4.83965 34.4797C4.72715 31.9484 4.69902 31.1891 4.69902 24.7859C4.69902 18.3734 4.72715 17.6141 4.83965 15.0922C4.94277 12.7484 5.33652 11.4828 5.66465 10.6391C6.0959 9.52344 6.6209 8.71719 7.45527 7.88281C8.29902 7.03906 9.0959 6.52344 10.2115 6.09219C11.0553 5.76406 12.3303 5.37031 14.6646 5.26719C17.1865 5.15469 17.9459 5.12656 24.3584 5.12656ZM24.3584 0.804688C17.8428 0.804688 17.0271 0.832812 14.4678 0.945312C11.9178 1.05781 10.1646 1.47031 8.6459 2.06094C7.06152 2.67969 5.7209 3.49531 4.38965 4.83594C3.04902 6.16719 2.2334 7.50781 1.61465 9.08281C1.02402 10.6109 0.611523 12.3547 0.499023 14.9047C0.386523 17.4734 0.358398 18.2891 0.358398 24.8047C0.358398 31.3203 0.386523 32.1359 0.499023 34.6953C0.611523 37.2453 1.02402 38.9984 1.61465 40.5172C2.2334 42.1016 3.04902 43.4422 4.38965 44.7734C5.7209 46.1047 7.06152 46.9297 8.63652 47.5391C10.1646 48.1297 11.9084 48.5422 14.4584 48.6547C17.0178 48.7672 17.8334 48.7953 24.349 48.7953C30.8646 48.7953 31.6803 48.7672 34.2397 48.6547C36.7896 48.5422 38.5428 48.1297 40.0615 47.5391C41.6365 46.9297 42.9771 46.1047 44.3084 44.7734C45.6396 43.4422 46.4646 42.1016 47.074 40.5266C47.6646 38.9984 48.0772 37.2547 48.1897 34.7047C48.3022 32.1453 48.3303 31.3297 48.3303 24.8141C48.3303 18.2984 48.3022 17.4828 48.1897 14.9234C48.0772 12.3734 47.6646 10.6203 47.074 9.10156C46.4834 7.50781 45.6678 6.16719 44.3272 4.83594C42.9959 3.50469 41.6553 2.67969 40.0803 2.07031C38.5522 1.47969 36.8084 1.06719 34.2584 0.954688C31.6896 0.832813 30.874 0.804688 24.3584 0.804688Z" fill="#161616"/>
<path d="M24.3584 12.4766C17.5521 12.4766 12.0303 17.9984 12.0303 24.8047C12.0303 31.6109 17.5521 37.1328 24.3584 37.1328C31.1646 37.1328 36.6865 31.6109 36.6865 24.8047C36.6865 17.9984 31.1646 12.4766 24.3584 12.4766ZM24.3584 32.8016C19.9428 32.8016 16.3615 29.2203 16.3615 24.8047C16.3615 20.3891 19.9428 16.8078 24.3584 16.8078C28.774 16.8078 32.3553 20.3891 32.3553 24.8047C32.3553 29.2203 28.774 32.8016 24.3584 32.8016Z" fill="#161616"/>
<path d="M40.0521 11.9892C40.0521 13.583 38.7584 14.8673 37.174 14.8673C35.5803 14.8673 34.2959 13.5736 34.2959 11.9892C34.2959 10.3955 35.5896 9.11108 37.174 9.11108C38.7584 9.11108 40.0521 10.4048 40.0521 11.9892Z" fill="#161616"/>
</svg>
